# Blender 4.1.1
# www.blender.org
mtllib MenkMack_Mine_Projectile_Red.mtl
o projectiles_MenkMackMineRed
v 0.019293 0.312410 -0.180371
v -0.019293 0.312410 -0.180371
v -0.019293 0.360740 -0.000001
v 0.019293 0.360740 -0.000001
v 0.019293 0.180370 -0.312411
v -0.019293 0.180370 -0.312411
v 0.019293 0.000000 -0.360741
v -0.019293 0.000000 -0.360741
v 0.019293 -0.360740 -0.000001
v 0.019293 -0.312410 0.180370
v -0.019293 -0.312410 0.180370
v -0.019293 -0.360740 -0.000001
v 0.019293 -0.180370 0.312410
v -0.019293 -0.180370 0.312410
v 0.019293 0.180370 0.312410
v -0.019293 0.180370 0.312410
v -0.019293 0.000000 0.360740
v 0.019293 0.000000 0.360740
v 0.019293 0.312410 0.180370
v -0.019293 0.312410 0.180370
v -0.367371 0.150181 -0.086708
v -0.367371 0.086707 0.150181
v -0.367371 0.150181 0.086707
v -0.367371 0.173415 -0.000001
v -0.044054 0.292595 -0.168930
v -0.044054 0.337859 -0.000001
v -0.019293 0.360740 -0.000001
v -0.019293 0.312410 -0.180371
v -0.044054 0.168929 -0.292595
v -0.019293 0.180370 -0.312411
v -0.044054 0.000000 -0.337859
v -0.019293 0.000000 -0.360741
v -0.044054 -0.168929 -0.292595
v -0.019293 -0.180370 -0.312411
v -0.044054 -0.292595 -0.168930
v -0.019293 -0.312410 -0.180371
v -0.044054 -0.337859 -0.000001
v -0.019293 -0.360740 -0.000001
v -0.044054 -0.292595 0.168929
v -0.044054 -0.337859 -0.000001
v -0.019293 -0.360740 -0.000001
v -0.019293 -0.312410 0.180370
v -0.044054 -0.168929 0.292594
v -0.019293 -0.180370 0.312410
v -0.044054 0.000000 0.337858
v -0.019293 0.000000 0.360740
v -0.044054 0.168929 0.292594
v -0.019293 0.180370 0.312410
v -0.044054 0.292595 0.168929
v -0.019293 0.312410 0.180370
v -0.157452 0.269134 -0.155385
v -0.157452 0.310769 -0.000001
v -0.044054 0.337859 -0.000001
v -0.044054 0.292595 -0.168930
v -0.157452 0.155384 -0.269134
v -0.044054 0.168929 -0.292595
v -0.157452 0.000000 -0.310770
v -0.044054 0.000000 -0.337859
v -0.157451 -0.155384 -0.269134
v -0.044054 -0.168929 -0.292595
v -0.157451 -0.269134 -0.155385
v -0.044054 -0.292595 -0.168930
v -0.157451 -0.310769 -0.000001
v -0.044054 -0.337859 -0.000001
v -0.157451 -0.269134 0.155384
v -0.157451 -0.310769 -0.000001
v -0.044054 -0.337859 -0.000001
v -0.044054 -0.292595 0.168929
v -0.157451 -0.155384 0.269133
v -0.044054 -0.168929 0.292594
v -0.157452 0.000000 0.310768
v -0.044054 0.000000 0.337858
v -0.157452 0.155384 0.269133
v -0.044054 0.168929 0.292594
v -0.157452 0.269134 0.155384
v -0.044054 0.292595 0.168929
v -0.269595 0.241915 -0.000001
v -0.269595 0.209504 -0.120958
v -0.325578 0.190215 -0.109821
v -0.325578 0.219642 -0.000001
v -0.269595 0.120958 -0.209505
v -0.325578 0.109821 -0.190215
v -0.269595 0.000000 -0.241915
v -0.325578 0.000000 -0.219642
v -0.269595 -0.120958 -0.209505
v -0.325578 -0.109821 -0.190215
v -0.269595 -0.209504 -0.120958
v -0.325578 -0.190215 -0.109822
v -0.269595 -0.241915 -0.000001
v -0.325578 -0.219642 -0.000001
v -0.269595 -0.241915 -0.000001
v -0.269595 -0.209504 0.120957
v -0.325578 -0.190215 0.109820
v -0.325578 -0.219642 -0.000001
v -0.269595 -0.120958 0.209504
v -0.325578 -0.109821 0.190215
v -0.269595 0.000000 0.241915
v -0.325578 0.000000 0.219641
v -0.269595 0.120957 0.209504
v -0.325578 0.109821 0.190215
v -0.269595 0.209504 0.120957
v -0.325578 0.190215 0.109821
v -0.325578 0.219642 -0.000001
v -0.325578 0.190215 -0.109821
v -0.378516 0.192526 -0.111155
v -0.378516 0.222310 -0.000001
v -0.325578 0.109821 -0.190215
v -0.378516 0.111155 -0.192527
v -0.325578 0.000000 -0.219642
v -0.378516 0.000000 -0.222311
v -0.325578 -0.109821 -0.190215
v -0.378516 -0.111155 -0.192527
v -0.325578 -0.190215 -0.109822
v -0.378516 -0.192526 -0.111155
v -0.325578 -0.219642 -0.000001
v -0.378516 -0.222310 -0.000001
v -0.325578 -0.219642 -0.000001
v -0.325578 -0.190215 0.109820
v -0.378516 -0.192526 0.111154
v -0.378516 -0.222310 -0.000001
v -0.325578 -0.109821 0.190215
v -0.378516 -0.111155 0.192526
v -0.325578 0.000000 0.219641
v -0.378516 0.000000 0.222310
v -0.325578 0.109821 0.190215
v -0.378516 0.111155 0.192526
v -0.325578 0.190215 0.109821
v -0.378516 0.192526 0.111155
v -0.378516 0.222310 -0.000001
v -0.378516 0.192526 -0.111155
v -0.367371 0.150181 -0.086708
v -0.367371 0.173415 -0.000001
v -0.378516 0.111155 -0.192527
v -0.367371 0.086707 -0.150182
v -0.378516 0.000000 -0.222311
v -0.367371 0.000000 -0.173416
v -0.378516 -0.111155 -0.192527
v -0.367371 -0.086707 -0.150182
v -0.378516 -0.192526 -0.111155
v -0.367371 -0.150182 -0.086708
v -0.378516 -0.222310 -0.000001
v -0.367371 -0.173415 -0.000001
v -0.378516 -0.192526 0.111154
v -0.367371 -0.150182 0.086706
v -0.378516 -0.111155 0.192526
v -0.367371 -0.086707 0.150181
v -0.378516 0.000000 0.222310
v -0.367371 0.000000 0.173414
v -0.378516 0.111155 0.192526
v -0.367371 0.086707 0.150181
v -0.378516 0.192526 0.111155
v -0.367371 0.150181 0.086707
v -0.269595 0.209504 -0.120958
v -0.269595 0.241915 -0.000001
v -0.269595 0.120958 -0.209505
v -0.269595 0.000000 -0.241915
v -0.269595 -0.120958 -0.209505
v -0.269595 -0.209504 -0.120958
v -0.269595 -0.241915 -0.000001
v -0.269595 -0.209504 0.120957
v -0.269595 -0.241915 -0.000001
v -0.269595 -0.120958 0.209504
v -0.269595 0.000000 0.241915
v -0.269595 0.120957 0.209504
v -0.269595 0.209504 0.120957
v -0.367371 0.086707 -0.150182
v -0.367371 0.000000 0.173414
v -0.367371 0.000000 -0.173416
v -0.367371 -0.086707 0.150181
v -0.367371 -0.086707 -0.150182
v -0.367371 -0.150182 0.086706
v -0.367371 -0.150182 -0.086708
v -0.367371 -0.173415 -0.000001
v 0.019293 -0.180370 -0.312411
v -0.019293 -0.180370 -0.312411
v 0.019293 -0.312410 -0.180371
v -0.019293 -0.312410 -0.180371
v 0.019293 -0.360740 -0.000001
v -0.019293 -0.360740 -0.000001
v 0.019293 0.360740 -0.000001
v -0.019293 0.360740 -0.000001
v 0.367371 0.150181 -0.086708
v 0.367371 0.173415 -0.000001
v 0.367371 0.150181 0.086707
v 0.367371 0.086707 0.150181
v 0.044054 0.292595 -0.168930
v 0.019293 0.312410 -0.180371
v 0.019293 0.360740 -0.000001
v 0.044054 0.337859 -0.000001
v 0.044054 0.168929 -0.292595
v 0.019293 0.180370 -0.312411
v 0.044054 0.000000 -0.337859
v 0.019293 0.000000 -0.360741
v 0.044054 -0.168929 -0.292595
v 0.019293 -0.180370 -0.312411
v 0.044054 -0.292595 -0.168930
v 0.019293 -0.312410 -0.180371
v 0.044054 -0.337859 -0.000001
v 0.019293 -0.360740 -0.000001
v 0.044054 -0.292595 0.168929
v 0.019293 -0.312410 0.180370
v 0.019293 -0.360740 -0.000001
v 0.044054 -0.337859 -0.000001
v 0.044054 -0.168929 0.292594
v 0.019293 -0.180370 0.312410
v 0.044054 0.000000 0.337858
v 0.019293 0.000000 0.360740
v 0.044054 0.168929 0.292594
v 0.019293 0.180370 0.312410
v 0.044054 0.292595 0.168929
v 0.019293 0.312410 0.180370
v 0.157451 0.269134 -0.155385
v 0.044054 0.292595 -0.168930
v 0.044054 0.337859 -0.000001
v 0.157451 0.310769 -0.000001
v 0.157451 0.155384 -0.269134
v 0.044054 0.168929 -0.292595
v 0.157451 0.000000 -0.310770
v 0.044054 0.000000 -0.337859
v 0.157452 -0.155384 -0.269134
v 0.044054 -0.168929 -0.292595
v 0.157452 -0.269134 -0.155385
v 0.044054 -0.292595 -0.168930
v 0.157452 -0.310769 -0.000001
v 0.044054 -0.337859 -0.000001
v 0.157452 -0.269134 0.155384
v 0.044054 -0.292595 0.168929
v 0.044054 -0.337859 -0.000001
v 0.157452 -0.310769 -0.000001
v 0.157452 -0.155384 0.269133
v 0.044054 -0.168929 0.292594
v 0.157451 0.000000 0.310768
v 0.044054 0.000000 0.337858
v 0.157451 0.155384 0.269133
v 0.044054 0.168929 0.292594
v 0.157451 0.269134 0.155384
v 0.044054 0.292595 0.168929
v 0.269595 0.241915 -0.000001
v 0.325578 0.219642 -0.000001
v 0.325578 0.190215 -0.109821
v 0.269595 0.209504 -0.120958
v 0.325578 0.109821 -0.190215
v 0.269595 0.120958 -0.209505
v 0.325578 0.000000 -0.219642
v 0.269595 0.000000 -0.241915
v 0.325578 -0.109821 -0.190215
v 0.269595 -0.120958 -0.209505
v 0.325578 -0.190215 -0.109822
v 0.269595 -0.209504 -0.120958
v 0.325578 -0.219642 -0.000001
v 0.269595 -0.241915 -0.000001
v 0.269595 -0.241915 -0.000001
v 0.325578 -0.219642 -0.000001
v 0.325578 -0.190215 0.109820
v 0.269595 -0.209504 0.120957
v 0.325578 -0.109821 0.190215
v 0.269595 -0.120958 0.209504
v 0.325578 0.000000 0.219641
v 0.269595 0.000000 0.241915
v 0.325578 0.109821 0.190215
v 0.269595 0.120958 0.209504
v 0.325578 0.190215 0.109821
v 0.269595 0.209504 0.120957
v 0.325578 0.219642 -0.000001
v 0.378516 0.222310 -0.000001
v 0.378516 0.192526 -0.111155
v 0.325578 0.190215 -0.109821
v 0.378516 0.111155 -0.192527
v 0.325578 0.109821 -0.190215
v 0.378516 0.000000 -0.222311
v 0.325578 0.000000 -0.219642
v 0.378516 -0.111155 -0.192527
v 0.325578 -0.109821 -0.190215
v 0.378516 -0.192526 -0.111155
v 0.325578 -0.190215 -0.109822
v 0.378516 -0.222310 -0.000001
v 0.325578 -0.219642 -0.000001
v 0.325578 -0.219642 -0.000001
v 0.378516 -0.222310 -0.000001
v 0.378516 -0.192526 0.111154
v 0.325578 -0.190215 0.109820
v 0.378516 -0.111155 0.192526
v 0.325578 -0.109821 0.190215
v 0.378516 0.000000 0.222310
v 0.325578 0.000000 0.219641
v 0.378516 0.111155 0.192526
v 0.325578 0.109821 0.190215
v 0.378516 0.192526 0.111155
v 0.325578 0.190215 0.109821
v 0.378516 0.222310 -0.000001
v 0.367371 0.173415 -0.000001
v 0.367371 0.150181 -0.086708
v 0.378516 0.192526 -0.111155
v 0.367371 0.086707 -0.150182
v 0.378516 0.111155 -0.192527
v 0.367371 0.000000 -0.173416
v 0.378516 0.000000 -0.222311
v 0.367371 -0.086707 -0.150182
v 0.378516 -0.111155 -0.192527
v 0.367371 -0.150182 -0.086708
v 0.378516 -0.192526 -0.111155
v 0.367371 -0.173415 -0.000001
v 0.378516 -0.222310 -0.000001
v 0.367371 -0.150182 0.086706
v 0.378516 -0.192526 0.111154
v 0.367371 -0.086707 0.150181
v 0.378516 -0.111155 0.192526
v 0.367371 0.000000 0.173414
v 0.378516 0.000000 0.222310
v 0.367371 0.086707 0.150181
v 0.378516 0.111155 0.192526
v 0.367371 0.150181 0.086707
v 0.378516 0.192526 0.111155
v 0.269595 0.209504 -0.120958
v 0.269595 0.241915 -0.000001
v 0.269595 0.120958 -0.209505
v 0.269595 0.000000 -0.241915
v 0.269595 -0.120958 -0.209505
v 0.269595 -0.209504 -0.120958
v 0.269595 -0.241915 -0.000001
v 0.269595 -0.209504 0.120957
v 0.269595 -0.241915 -0.000001
v 0.269595 -0.120958 0.209504
v 0.269595 0.000000 0.241915
v 0.269595 0.120958 0.209504
v 0.269595 0.209504 0.120957
v 0.367371 0.086707 -0.150182
v 0.367371 0.000000 0.173414
v 0.367371 0.000000 -0.173416
v 0.367371 -0.086707 0.150181
v 0.367371 -0.086707 -0.150182
v 0.367371 -0.150182 0.086706
v 0.367371 -0.150182 -0.086708
v 0.367371 -0.173415 -0.000001
vn -0.0000 0.8660 -0.5000
vn -0.0000 1.0000 -0.0001
vn -0.0000 0.5000 -0.8660
vn -0.0000 -0.0000 -1.0000
vn -0.0000 -0.5000 -0.8660
vn -0.0000 -0.8660 -0.5000
vn -0.0000 -1.0000 -0.0001
vn 0.0001 -1.0000 -0.0001
vn -0.0000 0.5000 0.8660
vn -0.0000 0.8660 0.5000
vn -0.0000 -0.0000 1.0000
vn -0.0000 1.0000 0.0001
vn -0.0000 -0.5000 0.8660
vn -0.0000 -0.8660 0.5000
vn -0.0000 -1.0000 0.0001
vn -0.6787 -0.6360 -0.3672
vn -0.6787 -0.3672 -0.6360
vn -0.6787 -0.7344 -0.0001
vn -0.6787 -0.0000 -0.7344
vn -0.6787 0.3672 -0.6360
vn -0.6787 0.6360 -0.3672
vn -0.6787 0.7344 -0.0000
vn -0.6787 0.6360 0.3672
vn -0.6787 0.3672 0.6360
vn -0.6787 -0.0000 0.7344
vn -0.6787 -0.3672 0.6360
vn -0.6787 -0.6360 0.3672
vn -0.6787 -0.7344 0.0001
vn -0.3737 -0.8033 -0.4638
vn -0.3737 -0.4638 -0.8033
vn -0.2324 -0.4863 -0.8423
vn -0.5232 -0.7380 -0.4261
vn -0.2324 -0.8423 -0.4863
vn -0.2324 -0.0000 -0.9726
vn -0.5232 -0.4261 -0.7380
vn -0.3737 -0.9276 -0.0000
vn -0.3737 -0.0000 -0.9276
vn -0.5232 -0.8522 -0.0000
vn -0.2323 -0.9726 -0.0001
vn -0.2324 0.4863 -0.8423
vn -0.3737 0.4638 -0.8033
vn -0.2324 0.8423 -0.4863
vn -0.5232 -0.0000 -0.8522
vn -0.3737 0.8033 -0.4638
vn -0.5232 0.4261 -0.7380
vn -0.2324 0.9726 -0.0000
vn -0.5232 0.7380 -0.4261
vn -0.3737 0.9276 -0.0000
vn -0.2324 0.8423 0.4863
vn -0.5232 0.8522 -0.0000
vn -0.3737 0.8033 0.4638
vn -0.5232 0.7380 0.4261
vn -0.2324 0.4863 0.8423
vn -0.3737 0.4638 0.8033
vn -0.2324 -0.0000 0.9726
vn -0.5232 0.4261 0.7380
vn -0.3737 -0.0000 0.9276
vn -0.2324 -0.4863 0.8423
vn -0.5232 -0.0000 0.8522
vn -0.3737 -0.4638 0.8033
vn -0.2324 -0.8423 0.4863
vn -0.5232 -0.4261 0.7380
vn -0.3737 -0.8033 0.4638
vn -0.5232 -0.7380 0.4261
vn -0.2323 -0.9726 0.0001
vn -0.3737 -0.9276 0.0001
vn 0.0504 -0.4994 -0.8649
vn 0.0503 -0.8649 -0.4994
vn 0.0503 -0.0000 -0.9987
vn 0.0503 -0.9987 -0.0000
vn 0.0504 0.4994 -0.8649
vn 0.0504 -0.9987 -0.0000
vn 0.0503 0.8649 -0.4994
vn 0.0503 0.9987 -0.0000
vn 0.0504 0.8649 0.4994
vn 0.0503 0.4994 0.8649
vn 0.0503 -0.0000 0.9987
vn 0.0503 -0.4994 0.8649
vn 0.0503 -0.8649 0.4994
vn -0.9750 0.1111 0.1925
vn -0.9750 0.1925 0.1111
vn -0.9750 -0.0000 0.2222
vn -0.9750 0.2222 -0.0000
vn -0.9750 -0.1111 0.1925
vn -0.9750 0.1925 -0.1111
vn -0.9750 -0.1925 0.1111
vn -0.9750 0.1111 -0.1925
vn -0.9750 -0.2222 -0.0000
vn -0.9750 -0.0000 -0.2222
vn -0.9750 -0.1925 -0.1111
vn -0.9750 -0.1111 -0.1925
vn -0.3697 -0.0000 -0.9292
vn -0.3697 -0.4646 -0.8047
vn -0.3697 0.4646 -0.8047
vn -0.3697 -0.8047 -0.4646
vn -0.3697 0.8047 -0.4646
vn -0.3697 -0.9292 -0.0000
vn -0.3697 0.9292 -0.0000
vn -0.3697 0.8047 0.4646
vn -0.3697 0.4646 0.8047
vn -0.3697 -0.0000 0.9292
vn -0.3697 -0.4646 0.8047
vn -0.3697 -0.8047 0.4646
vn -1.0000 -0.0000 -0.0000
vn 1.0000 -0.0000 -0.0000
vn 0.6787 -0.6360 -0.3672
vn 0.6787 -0.3672 -0.6360
vn 0.6787 -0.7344 -0.0001
vn 0.6787 -0.0000 -0.7344
vn 0.6787 0.3672 -0.6360
vn 0.6787 0.6360 -0.3672
vn 0.6787 0.7344 -0.0000
vn 0.6787 0.6360 0.3672
vn 0.6787 0.3672 0.6360
vn 0.6787 -0.0000 0.7344
vn 0.6787 -0.3672 0.6360
vn 0.6787 -0.6360 0.3672
vn 0.6787 -0.7344 0.0001
vn 0.3737 -0.8033 -0.4638
vn 0.2324 -0.8423 -0.4863
vn 0.2324 -0.4863 -0.8423
vn 0.3737 -0.9276 -0.0000
vn 0.3737 -0.4638 -0.8033
vn 0.2324 -0.9726 -0.0001
vn 0.2324 -0.0000 -0.9726
vn 0.5232 -0.7380 -0.4261
vn 0.5232 -0.8522 -0.0000
vn 0.5232 -0.4261 -0.7380
vn 0.3737 -0.0000 -0.9276
vn 0.5232 -0.0000 -0.8522
vn 0.3737 0.4638 -0.8033
vn 0.2324 0.4863 -0.8423
vn 0.5232 0.4261 -0.7380
vn 0.2324 0.8423 -0.4863
vn 0.3737 0.8033 -0.4638
vn 0.5232 0.7380 -0.4261
vn 0.2324 0.9726 -0.0000
vn 0.3737 0.9276 -0.0000
vn 0.2324 0.8423 0.4863
vn 0.5232 0.8522 -0.0000
vn 0.3737 0.8033 0.4638
vn 0.2324 0.4863 0.8423
vn 0.5232 0.7380 0.4261
vn 0.3737 0.4638 0.8033
vn 0.2324 -0.0000 0.9726
vn 0.5232 0.4261 0.7380
vn 0.3737 -0.0000 0.9276
vn 0.5232 -0.0000 0.8522
vn 0.2324 -0.4863 0.8423
vn 0.3737 -0.4638 0.8033
vn 0.2324 -0.8423 0.4863
vn 0.5232 -0.4261 0.7380
vn 0.3737 -0.8033 0.4638
vn 0.2323 -0.9726 0.0001
vn 0.5232 -0.7380 0.4261
vn 0.3737 -0.9276 0.0001
vn -0.0504 -0.4994 -0.8649
vn -0.0503 -0.8649 -0.4994
vn -0.0503 -0.0000 -0.9987
vn -0.0504 -0.9987 -0.0000
vn -0.0504 0.4994 -0.8649
vn -0.0503 0.8649 -0.4994
vn -0.0503 0.9987 -0.0000
vn -0.0503 0.8649 0.4994
vn -0.0503 0.4994 0.8649
vn -0.0503 -0.0000 0.9987
vn -0.0503 -0.4994 0.8649
vn -0.0503 -0.8649 0.4994
vn -0.0503 -0.9987 -0.0000
vn 0.9750 0.1111 0.1925
vn 0.9750 0.1925 0.1111
vn 0.9750 -0.0000 0.2222
vn 0.9750 0.2222 -0.0000
vn 0.9750 -0.1111 0.1925
vn 0.9750 0.1925 -0.1111
vn 0.9750 -0.1925 0.1111
vn 0.9750 0.1111 -0.1925
vn 0.9750 -0.2222 -0.0000
vn 0.9750 -0.0000 -0.2222
vn 0.9750 -0.1925 -0.1111
vn 0.9750 -0.1111 -0.1925
vn 0.3697 0.8047 0.4646
vn 0.3697 0.9292 -0.0000
vn 0.3697 0.4646 0.8047
vn 0.3697 0.8047 -0.4646
vn 0.3697 -0.0000 0.9292
vn 0.3697 0.4646 -0.8047
vn 0.3697 -0.4646 0.8047
vn 0.3697 -0.0000 -0.9292
vn 0.3697 -0.8047 0.4646
vn 0.3697 -0.4646 -0.8047
vn 0.3697 -0.9292 -0.0000
vn 0.3697 -0.8047 -0.4646
vt 0.880446 0.977661
vt 0.880507 0.958343
vt 0.974075 0.958938
vt 0.786923 0.958358
vt 0.973953 0.978256
vt 0.786954 0.977691
vt 0.693370 0.958495
vt 0.693416 0.977844
vt 0.599908 0.978256
vt 0.599786 0.958923
vt 0.506310 0.979080
vt 0.506279 0.959747
vt 0.412680 0.978469
vt 0.412802 0.959136
vt 0.600275 0.935256
vt 0.506767 0.935699
vt 0.506645 0.916365
vt 0.600229 0.915938
vt 0.693812 0.915877
vt 0.413230 0.936461
vt 0.413077 0.917128
vt 0.693782 0.935210
vt 0.787411 0.916228
vt 0.787305 0.935546
vt 0.880827 0.936248
vt 0.880995 0.916915
vt 0.974380 0.937148
vt 0.974563 0.917815
vt 0.730968 0.519432
vt 0.736629 0.432044
vt 0.753414 0.430091
vt 0.747372 0.523491
vt 0.695277 0.599466
vt 0.726085 0.340566
vt 0.709255 0.608942
vt 0.711070 0.348302
vt 0.669078 0.266331
vt 0.657725 0.278843
vt 0.589532 0.216785
vt 0.583474 0.232548
vt 0.497322 0.200305
vt 0.497322 0.217212
vt 0.405249 0.216724
vt 0.411063 0.232593
vt 0.324285 0.263584
vt 0.335210 0.276463
vt 0.264912 0.335927
vt 0.279652 0.344198
vt 0.234104 0.424231
vt 0.250782 0.426963
vt 0.235264 0.517769
vt 0.251881 0.514641
vt 0.268299 0.605295
vt 0.282811 0.596658
vt 0.397864 0.078721
vt 0.322072 0.099199
vt 0.301198 0.044770
vt 0.407919 0.143572
vt 0.388006 0.021469
vt 0.220798 0.085344
vt 0.345602 0.160662
vt 0.477394 0.074144
vt 0.252232 0.134524
vt 0.471382 0.140536
vt 0.476463 0.015000
vt 0.150286 0.141253
vt 0.190921 0.183169
vt 0.092332 0.209995
vt 0.287724 0.190051
vt 0.140475 0.243015
vt 0.236789 0.230472
vt 0.049119 0.288808
vt 0.194827 0.280293
vt 0.102846 0.311666
vt 0.022324 0.374594
vt 0.163500 0.337453
vt 0.079500 0.386374
vt 0.144060 0.399680
vt 0.013001 0.464027
vt 0.071366 0.464225
vt 0.021607 0.553582
vt 0.137270 0.464485
vt 0.078843 0.542153
vt 0.048020 0.639643
vt 0.143465 0.529274
vt 0.101732 0.617014
vt 0.091279 0.718410
vt 0.162371 0.591409
vt 0.139437 0.685893
vt 0.193194 0.648249
vt 0.147860 0.786725
vt 0.191180 0.746456
vt 0.234928 0.696147
vt 0.199878 0.916838
vt 0.141497 0.918700
vt 0.141756 0.892042
vt 0.197818 0.890410
vt 0.257908 0.909529
vt 0.084932 0.889052
vt 0.253437 0.883406
vt 0.315068 0.896971
vt 0.083970 0.915251
vt 0.308263 0.871351
vt 0.370901 0.879423
vt 0.361868 0.854490
vt 0.425025 0.857115
vt 0.413886 0.833066
vt 0.477043 0.830289
vt 0.463874 0.807279
vt 0.526406 0.798871
vt 0.511482 0.776944
vt 0.573663 0.764324
vt 0.557168 0.743557
vt 0.618143 0.726299
vt 0.600031 0.706920
vt 0.659236 0.684779
vt 0.639521 0.666819
vt 0.695994 0.640391
vt 0.676173 0.623224
vt 0.335943 0.493416
vt 0.385702 0.463661
vt 0.392645 0.487816
vt 0.353948 0.510781
vt 0.307637 0.543679
vt 0.437629 0.487358
vt 0.331777 0.549950
vt 0.307790 0.601328
vt 0.443946 0.462974
vt 0.331945 0.594888
vt 0.476707 0.509712
vt 0.494499 0.491951
vt 0.336721 0.651530
vt 0.499275 0.548592
vt 0.354513 0.633783
vt 0.387259 0.680507
vt 0.523415 0.542168
vt 0.393576 0.656123
vt 0.499428 0.593545
vt 0.523568 0.599817
vt 0.445518 0.679835
vt 0.477256 0.632700
vt 0.438560 0.655665
vt 0.495277 0.650065
vt 0.263020 0.939239
vt 0.202243 0.946914
vt 0.322820 0.926085
vt 0.140932 0.948989
vt 0.381170 0.907744
vt 0.437690 0.884459
vt 0.079026 0.944686
vt 0.492027 0.856458
vt 0.543374 0.823758
vt 0.592401 0.787930
vt 0.638697 0.748363
vt 0.681804 0.704967
vt 0.720897 0.656825
vt 0.625422 0.437385
vt 0.586480 0.459937
vt 0.541497 0.459739
vt 0.502663 0.436988
vt 0.647776 0.398367
vt 0.480278 0.397955
vt 0.647684 0.353414
vt 0.480186 0.353002
vt 0.625299 0.314382
vt 0.502541 0.313985
vt 0.586465 0.291630
vt 0.541482 0.291432
vt 0.212375 0.520684
vt 0.193027 0.524224
vt 0.192493 0.415259
vt 0.247959 0.616342
vt 0.211887 0.418585
vt 0.231006 0.626337
vt 0.229313 0.312734
vt 0.246357 0.322530
vt 0.299428 0.229313
vt 0.311986 0.244450
vt 0.394339 0.175860
vt 0.400885 0.194400
vt 0.501762 0.157931
vt 0.501534 0.177600
vt 0.608850 0.178286
vt 0.601694 0.196612
vt 0.701411 0.235874
vt 0.688228 0.250477
vt 0.768170 0.321950
vt 0.750744 0.331075
vt 0.800885 0.425879
vt 0.781369 0.428336
vt 0.795056 0.534676
vt 0.775906 0.530175
vt 0.751842 0.634684
vt 0.735439 0.623835
vt 0.582223 0.076127
vt 0.590173 0.018570
vt 0.677714 0.038956
vt 0.502586 0.074220
vt 0.658671 0.094057
vt 0.501534 0.015076
vt 0.759411 0.076814
vt 0.574350 0.141283
vt 0.510826 0.140383
vt 0.637217 0.156283
vt 0.729656 0.127031
vt 0.696040 0.183703
vt 0.792554 0.173587
vt 0.831754 0.130327
vt 0.748287 0.222400
vt 0.891966 0.197101
vt 0.844953 0.231723
vt 0.791882 0.270787
vt 0.937774 0.274403
vt 0.884855 0.299062
vt 0.967468 0.359228
vt 0.825101 0.326879
vt 0.910719 0.372946
vt 0.979843 0.448249
vt 0.846662 0.388434
vt 0.921508 0.450462
vt 0.974334 0.538048
vt 0.855650 0.452964
vt 0.916732 0.528588
vt 0.851713 0.517922
vt 0.950866 0.624979
vt 0.896406 0.604181
vt 0.910277 0.705165
vt 0.834928 0.580652
vt 0.861051 0.674281
vt 0.856031 0.775341
vt 0.806058 0.638468
vt 0.811368 0.736553
vt 0.765942 0.687755
vt 0.612100 0.600763
vt 0.591333 0.584253
vt 0.624201 0.538674
vt 0.573678 0.644892
vt 0.646403 0.553429
vt 0.554482 0.626612
vt 0.653742 0.489967
vt 0.531487 0.685420
vt 0.675959 0.503914
vt 0.514015 0.665476
vt 0.485817 0.721965
vt 0.470253 0.700496
vt 0.436942 0.754070
vt 0.423499 0.731228
vt 0.385199 0.781292
vt 0.374044 0.757244
vt 0.330999 0.803220
vt 0.322316 0.778180
vt 0.274876 0.819562
vt 0.268727 0.793790
vt 0.217395 0.830274
vt 0.213794 0.803983
vt 0.159213 0.835386
vt 0.157946 0.808743
vt 0.101564 0.835203
vt 0.101030 0.808972
vt 0.643198 0.296910
vt 0.671794 0.347021
vt 0.593286 0.267430
vt 0.671962 0.404669
vt 0.535027 0.267079
vt 0.643320 0.455039
vt 0.484642 0.296330
vt 0.592935 0.484291
vt 0.456001 0.346700
vt 0.534676 0.483940
vt 0.456168 0.404349
vt 0.484749 0.454459
vt 0.397879 0.808637
vt 0.340887 0.831708
vt 0.452247 0.780056
vt 0.281880 0.848905
vt 0.503517 0.746365
vt 0.221515 0.860166
vt 0.551354 0.708110
vt 0.160372 0.865660
vt 0.595499 0.665690
vt 0.098283 0.864881
vt 0.635706 0.619547
vt 0.671794 0.569986
vt 0.703090 0.516381
s 1
usemtl projectiles_MenkMackMineRed
f 1/1/1 2/2/1 3/3/2
f 6/4/3 2/2/1 1/1/1
f 3/3/2 4/5/2 1/1/1
f 1/1/1 5/6/3 6/4/3
f 8/7/4 6/4/3 5/6/3
f 5/6/3 7/8/4 8/7/4
f 8/7/4 7/8/4 174/9/5
f 174/9/5 175/10/5 8/7/4
f 175/10/5 174/9/5 176/11/6
f 176/11/6 177/12/6 175/10/5
f 177/12/6 176/11/6 178/13/7
f 178/13/7 179/14/8 177/12/6
f 15/15/9 19/16/10 20/17/10
f 20/17/10 16/18/9 15/15/9
f 15/15/9 16/18/9 17/19/11
f 20/17/10 19/16/10 180/20/12
f 180/20/12 181/21/12 20/17/10
f 17/19/11 18/22/11 15/15/9
f 18/22/11 17/19/11 14/23/13
f 14/23/13 13/24/13 18/22/11
f 10/25/14 13/24/13 14/23/13
f 14/23/13 11/26/14 10/25/14
f 9/27/15 10/25/14 11/26/14
f 11/26/14 12/28/15 9/27/15
f 35/29/16 33/30/17 34/31/17
f 34/31/17 36/32/16 35/29/16
f 37/33/18 35/29/16 36/32/16
f 32/34/19 34/31/17 33/30/17
f 36/32/16 38/35/18 37/33/18
f 33/30/17 31/36/19 32/34/19
f 30/37/20 32/34/19 31/36/19
f 31/36/19 29/38/20 30/37/20
f 28/39/21 30/37/20 29/38/20
f 29/38/20 25/40/21 28/39/21
f 27/41/22 28/39/21 25/40/21
f 25/40/21 26/42/22 27/41/22
f 50/43/23 27/41/22 26/42/22
f 26/42/22 49/44/23 50/43/23
f 48/45/24 50/43/23 49/44/23
f 49/44/23 47/46/24 48/45/24
f 46/47/25 48/45/24 47/46/24
f 47/46/24 45/48/25 46/47/25
f 44/49/26 46/47/25 45/48/25
f 45/48/25 43/50/26 44/49/26
f 42/51/27 44/49/26 43/50/26
f 43/50/26 39/52/27 42/51/27
f 41/53/28 42/51/27 39/52/27
f 39/52/27 40/54/28 41/53/28
f 61/55/29 59/56/30 60/57/31
f 59/56/30 61/55/29 158/58/32
f 60/57/31 62/59/33 61/55/29
f 58/60/34 60/57/31 59/56/30
f 158/58/32 157/61/35 59/56/30
f 63/62/36 61/55/29 62/59/33
f 59/56/30 57/63/37 58/60/34
f 57/63/37 59/56/30 157/61/35
f 159/64/38 158/58/32 61/55/29
f 61/55/29 63/62/36 159/64/38
f 62/59/33 64/65/39 63/62/36
f 56/66/40 58/60/34 57/63/37
f 57/63/37 55/67/41 56/66/40
f 54/68/42 56/66/40 55/67/41
f 55/67/41 57/63/37 156/69/43
f 55/67/41 51/70/44 54/68/42
f 156/69/43 155/71/45 55/67/41
f 51/70/44 55/67/41 155/71/45
f 157/61/35 156/69/43 57/63/37
f 53/72/46 54/68/42 51/70/44
f 155/71/45 153/73/47 51/70/44
f 51/70/44 52/74/48 53/72/46
f 52/74/48 51/70/44 153/73/47
f 76/75/49 53/72/46 52/74/48
f 153/73/47 154/76/50 52/74/48
f 52/74/48 75/77/51 76/75/49
f 75/77/51 52/74/48 154/76/50
f 154/76/50 165/78/52 75/77/51
f 74/79/53 76/75/49 75/77/51
f 73/80/54 75/77/51 165/78/52
f 75/77/51 73/80/54 74/79/53
f 72/81/55 74/79/53 73/80/54
f 165/78/52 164/82/56 73/80/54
f 73/80/54 71/83/57 72/81/55
f 71/83/57 73/80/54 164/82/56
f 70/84/58 72/81/55 71/83/57
f 164/82/56 163/85/59 71/83/57
f 71/83/57 69/86/60 70/84/58
f 69/86/60 71/83/57 163/85/59
f 68/87/61 70/84/58 69/86/60
f 163/85/59 162/88/62 69/86/60
f 69/86/60 65/89/63 68/87/61
f 65/89/63 69/86/60 162/88/62
f 162/88/62 160/90/64 65/89/63
f 67/91/65 68/87/61 65/89/63
f 66/92/66 65/89/63 160/90/64
f 65/89/63 66/92/66 67/91/65
f 160/90/64 161/93/38 66/92/66
f 111/94/67 113/95/68 114/96/68
f 114/96/68 112/97/67 111/94/67
f 109/98/69 111/94/67 112/97/67
f 116/99/70 114/96/68 113/95/68
f 112/97/67 110/100/69 109/98/69
f 107/101/71 109/98/69 110/100/69
f 113/95/68 115/102/72 116/99/70
f 110/100/69 108/103/71 107/101/71
f 104/104/73 107/101/71 108/103/71
f 108/103/71 105/105/73 104/104/73
f 103/106/74 104/104/73 105/105/73
f 105/105/73 106/107/74 103/106/74
f 127/108/75 103/106/74 106/107/74
f 106/107/74 128/109/75 127/108/75
f 125/110/76 127/108/75 128/109/75
f 128/109/75 126/111/76 125/110/76
f 123/112/77 125/110/76 126/111/76
f 126/111/76 124/113/77 123/112/77
f 121/114/78 123/112/77 124/113/77
f 124/113/77 122/115/78 121/114/78
f 118/116/79 121/114/78 122/115/78
f 122/115/78 119/117/79 118/116/79
f 117/118/72 118/116/79 119/117/79
f 119/117/79 120/119/72 117/118/72
f 137/120/80 139/121/81 140/122/81
f 140/122/81 138/123/80 137/120/80
f 135/124/82 137/120/80 138/123/80
f 142/125/83 140/122/81 139/121/81
f 138/123/80 136/126/82 135/124/82
f 133/127/84 135/124/82 136/126/82
f 139/121/81 141/128/83 142/125/83
f 136/126/82 134/129/84 133/127/84
f 144/130/85 142/125/83 141/128/83
f 141/128/83 143/131/85 144/130/85
f 130/132/86 133/127/84 134/129/84
f 146/133/87 144/130/85 143/131/85
f 134/129/84 131/134/86 130/132/86
f 129/135/88 130/132/86 131/134/86
f 143/131/85 145/136/87 146/133/87
f 131/134/86 132/137/88 129/135/88
f 148/138/89 146/133/87 145/136/87
f 145/136/87 147/139/89 148/138/89
f 151/140/90 129/135/88 132/137/88
f 150/141/91 148/138/89 147/139/89
f 132/137/88 152/142/90 151/140/90
f 149/143/91 151/140/90 152/142/90
f 147/139/89 149/143/91 150/141/91
f 152/142/90 150/141/91 149/143/91
f 83/144/92 85/145/93 86/94/93
f 86/94/93 84/98/92 83/144/92
f 81/146/94 83/144/92 84/98/92
f 88/95/95 86/94/93 85/145/93
f 84/98/92 82/101/94 81/146/94
f 85/145/93 87/147/95 88/95/95
f 78/148/96 81/146/94 82/101/94
f 82/101/94 79/104/96 78/148/96
f 90/102/97 88/95/95 87/147/95
f 77/149/98 78/148/96 79/104/96
f 87/147/95 89/150/97 90/102/97
f 79/104/96 80/106/98 77/149/98
f 101/151/99 77/149/98 80/106/98
f 80/106/98 102/108/99 101/151/99
f 99/152/100 101/151/99 102/108/99
f 102/108/99 100/110/100 99/152/100
f 97/153/101 99/152/100 100/110/100
f 100/110/100 98/112/101 97/153/101
f 95/154/102 97/153/101 98/112/101
f 98/112/101 96/114/102 95/154/102
f 92/155/103 95/154/102 96/114/102
f 96/114/102 93/116/103 92/155/103
f 91/156/97 92/155/103 93/116/103
f 93/116/103 94/118/97 91/156/97
f 167/138/104 166/129/104 168/126/104
f 166/129/104 167/138/104 22/141/104
f 168/126/104 169/133/104 167/138/104
f 22/141/104 21/134/104 166/129/104
f 169/133/104 168/126/104 170/123/104
f 21/134/104 22/141/104 23/142/104
f 170/123/104 171/130/104 169/133/104
f 23/142/104 24/137/104 21/134/104
f 171/130/104 170/123/104 172/122/104
f 172/122/104 173/125/104 171/130/104
f 182/157/105 183/158/105 184/159/105
f 184/159/105 185/160/105 182/157/105
f 327/161/105 182/157/105 185/160/105
f 185/160/105 328/162/105 327/161/105
f 329/163/105 327/161/105 328/162/105
f 328/162/105 330/164/105 329/163/105
f 331/165/105 329/163/105 330/164/105
f 330/164/105 332/166/105 331/165/105
f 333/167/105 331/165/105 332/166/105
f 332/166/105 334/168/105 333/167/105
f 196/169/106 197/170/106 195/171/107
f 197/170/106 196/169/106 198/172/108
f 195/171/107 194/173/107 196/169/106
f 198/172/108 199/174/108 197/170/106
f 194/173/107 195/171/107 193/175/109
f 193/175/109 192/176/109 194/173/107
f 192/176/109 193/175/109 191/177/110
f 191/177/110 190/178/110 192/176/109
f 190/178/110 191/177/110 187/179/111
f 187/179/111 186/180/111 190/178/110
f 186/180/111 187/179/111 188/181/112
f 188/181/112 189/182/112 186/180/111
f 189/182/112 188/181/112 211/183/113
f 211/183/113 210/184/113 189/182/112
f 210/184/113 211/183/113 209/185/114
f 209/185/114 208/186/114 210/184/113
f 208/186/114 209/185/114 207/187/115
f 207/187/115 206/188/115 208/186/114
f 206/188/115 207/187/115 205/189/116
f 205/189/116 204/190/116 206/188/115
f 204/190/116 205/189/116 201/191/117
f 201/191/117 200/192/117 204/190/116
f 200/192/117 201/191/117 202/193/118
f 202/193/118 203/194/118 200/192/117
f 222/195/119 223/196/120 221/197/121
f 223/196/120 222/195/119 224/198/122
f 221/197/121 220/199/123 222/195/119
f 224/198/122 225/200/124 223/196/120
f 220/199/123 221/197/121 219/201/125
f 319/202/126 222/195/119 220/199/123
f 320/203/127 224/198/122 222/195/119
f 222/195/119 319/202/126 320/203/127
f 220/199/123 318/204/128 319/202/126
f 318/204/128 220/199/123 218/205/129
f 218/205/129 317/206/130 318/204/128
f 219/201/125 218/205/129 220/199/123
f 317/206/130 218/205/129 216/207/131
f 218/205/129 219/201/125 217/208/132
f 217/208/132 216/207/131 218/205/129
f 216/207/131 316/209/133 317/206/130
f 216/207/131 217/208/132 213/210/134
f 316/209/133 216/207/131 212/211/135
f 213/210/134 212/211/135 216/207/131
f 212/211/135 314/212/136 316/209/133
f 212/211/135 213/210/134 214/213/137
f 314/212/136 212/211/135 215/214/138
f 214/213/137 215/214/138 212/211/135
f 215/214/138 214/213/137 237/215/139
f 215/214/138 315/216/140 314/212/136
f 237/215/139 236/217/141 215/214/138
f 315/216/140 215/214/138 236/217/141
f 236/217/141 237/215/139 235/218/142
f 236/217/141 326/219/143 315/216/140
f 235/218/142 234/220/144 236/217/141
f 326/219/143 236/217/141 234/220/144
f 234/220/144 235/218/142 233/221/145
f 234/220/144 325/222/146 326/219/143
f 325/222/146 234/220/144 232/223/147
f 233/221/145 232/223/147 234/220/144
f 232/223/147 324/224/148 325/222/146
f 232/223/147 233/221/145 231/225/149
f 324/224/148 232/223/147 230/226/150
f 231/225/149 230/226/150 232/223/147
f 230/226/150 231/225/149 227/227/151
f 230/226/150 323/228/152 324/224/148
f 227/227/151 226/229/153 230/226/150
f 323/228/152 230/226/150 226/229/153
f 226/229/153 227/227/151 228/230/154
f 226/229/153 321/231/155 323/228/152
f 228/230/154 229/232/156 226/229/153
f 321/231/155 226/229/153 229/232/156
f 229/232/156 322/233/127 321/231/155
f 273/234/157 272/235/157 274/236/158
f 272/235/157 273/234/157 271/237/159
f 274/236/158 275/238/158 273/234/157
f 271/237/159 270/239/159 272/235/157
f 275/238/158 274/236/158 276/240/160
f 270/239/159 271/237/159 269/241/161
f 276/240/160 277/242/160 275/238/158
f 269/241/161 268/243/161 270/239/159
f 268/243/161 269/241/161 267/244/162
f 267/244/162 266/245/162 268/243/161
f 266/245/162 267/244/162 264/246/163
f 264/246/163 265/247/163 266/245/162
f 265/247/163 264/246/163 289/248/164
f 289/248/164 288/249/164 265/247/163
f 288/249/164 289/248/164 287/250/165
f 287/250/165 286/251/165 288/249/164
f 286/251/165 287/250/165 285/252/166
f 285/252/166 284/253/166 286/251/165
f 284/253/166 285/252/166 283/254/167
f 283/254/167 282/255/167 284/253/166
f 282/255/167 283/254/167 281/256/168
f 281/256/168 280/257/168 282/255/167
f 280/257/168 281/256/168 278/258/160
f 278/258/160 279/259/169 280/257/168
f 299/260/170 298/165/170 300/167/171
f 298/165/170 299/260/170 297/261/172
f 300/167/171 301/262/171 299/260/170
f 297/261/172 296/163/172 298/165/170
f 301/262/171 300/167/171 302/168/173
f 296/163/172 297/261/172 295/263/174
f 302/168/173 303/264/173 301/262/171
f 295/263/174 294/161/174 296/163/172
f 303/264/173 302/168/173 304/166/175
f 294/161/174 295/263/174 293/265/176
f 304/166/175 305/266/175 303/264/173
f 293/265/176 292/157/176 294/161/174
f 305/266/175 304/166/175 306/164/177
f 292/157/176 293/265/176 290/267/178
f 306/164/177 307/268/177 305/266/175
f 290/267/178 291/158/178 292/157/176
f 307/268/177 306/164/177 308/162/179
f 291/158/178 290/267/178 313/269/180
f 308/162/179 309/270/179 307/268/177
f 313/269/180 312/159/180 291/158/178
f 309/270/179 308/162/179 310/160/181
f 312/159/180 313/269/180 311/271/181
f 311/271/181 310/160/181 312/159/180
f 310/160/181 311/271/181 309/270/179
f 263/272/182 262/248/182 239/246/183
f 262/248/182 263/272/182 261/273/184
f 239/246/183 238/274/183 263/272/182
f 261/273/184 260/250/184 262/248/182
f 238/274/183 239/246/183 240/244/185
f 260/250/184 261/273/184 259/275/186
f 240/244/185 241/276/185 238/274/183
f 259/275/186 258/252/186 260/250/184
f 241/276/185 240/244/185 242/241/187
f 258/252/186 259/275/186 257/277/188
f 242/241/187 243/278/187 241/276/185
f 257/277/188 256/254/188 258/252/186
f 243/278/187 242/241/187 244/237/189
f 256/254/188 257/277/188 255/279/190
f 244/237/189 245/280/189 243/278/187
f 255/279/190 254/256/190 256/254/188
f 245/280/189 244/237/189 246/234/191
f 254/256/190 255/279/190 252/281/192
f 246/234/191 247/282/191 245/280/189
f 252/281/192 253/258/192 254/256/190
f 247/282/191 246/234/191 248/238/193
f 248/238/193 249/283/193 247/282/191
f 249/283/193 248/238/193 250/242/192
f 250/242/192 251/284/192 249/283/193
